<!--?xml version="1.0" encoding="utf-8"?-->
<!-- Generator: Adobe Illustrator 18.1.1, SVG Export Plug-In . SVG Version: 6.00 Build 0)  -->

<svg version="1.1" id="_x32_" xmlns="http://www.w3.org/2000/svg" xmlns:xlink="http://www.w3.org/1999/xlink" x="0px" y="0px" viewBox="0 0 512 512" style="width: 256px; height: 256px; opacity: 1;" xml:space="preserve">
<style type="text/css">
	.st0{fill:#4B4B4B;}
</style>
<g>
	<path class="st0" d="M505.86,121.855h-6.141h-28.661h-8.198h-6.156h-6.14H61.452h-6.141h-6.156h-28.66h-8.198H6.14H0v12.289
		c-0.016,68.398,26.62,132.689,74.993,181.015c46.874,46.906,108.789,73.374,174.914,74.913v0.072h12.217v-0.072
		c66.126-1.539,128.008-27.998,174.899-74.913C485.38,266.842,512.016,202.55,512,134.145v-12.289H505.86z M393.578,271.714
		c-34.419,34.402-79.459,54.322-127.705,56.739c-3.27,0.152-6.555,0.248-9.856,0.248c-3.318,0-6.603-0.096-9.873-0.248
		c-48.246-2.416-93.287-22.336-127.722-56.739c-33.812-33.852-53.604-77.952-56.555-125.281h388.266
		C447.199,193.763,427.406,237.862,393.578,271.714z" style="fill: rgb(218, 179, 0);"></path>
	<path class="st0" d="M206.86,202.965c5.822,1.627,13.445-2.264,15.2-13.859c1.802-11.914-1.803-18.534-5.853-19.658
		c-4.068-1.14-10.558,2.664-15.168,13.804C196.542,194.081,201.071,201.355,206.86,202.965z" style="fill: rgb(218, 179, 0);"></path>
	<path class="st0" d="M305.14,202.965c5.805-1.61,10.319-8.884,5.837-19.713c-4.609-11.141-11.116-14.944-15.168-13.804
		c-4.067,1.124-7.656,7.744-5.854,19.658C291.71,200.701,299.334,204.592,305.14,202.965z" style="fill: rgb(218, 179, 0);"></path>
	<path class="st0" d="M179.811,272.583c5.79,1.611,13.413-2.281,15.167-13.884c1.819-11.906-1.786-18.517-5.837-19.649
		c-4.067-1.124-10.559,2.663-15.168,13.804C169.476,263.684,173.989,270.957,179.811,272.583z" style="fill: rgb(218, 179, 0);"></path>
	<path class="st0" d="M332.205,272.583c5.806-1.626,10.32-8.899,5.838-19.729c-4.625-11.141-11.117-14.928-15.168-13.804
		c-4.068,1.132-7.656,7.743-5.853,19.649C318.776,270.302,326.415,274.194,332.205,272.583z" style="fill: rgb(218, 179, 0);"></path>
	<path class="st0" d="M256.016,250.007c6.012,0,12.312-5.798,10.909-17.441c-1.467-11.953-6.698-17.368-10.909-17.368
		c-4.211,0-9.458,5.415-10.925,17.368C243.687,244.21,249.987,250.007,256.016,250.007z" style="fill: rgb(218, 179, 0);"></path>
	<path class="st0" d="M125.09,214.504c5.47,2.576,13.636,0.016,17.32-11.108c3.78-11.444,1.356-18.566-2.44-20.368
		c-3.827-1.794-10.862,0.853-17.289,11.052C116.429,203.994,119.65,211.929,125.09,214.504z" style="fill: rgb(218, 179, 0);"></path>
	<path class="st0" d="M386.911,214.504c5.454-2.576,8.676-10.51,2.424-20.423c-6.411-10.199-13.477-12.846-17.289-11.052
		c-3.796,1.802-6.236,8.924-2.44,20.368C373.29,214.521,381.456,217.08,386.911,214.504z" style="fill: rgb(218, 179, 0);"></path>
</g>
</svg>
